# xmcd
#
# Track frame offsets:
#	150
#	9350
#	21329
#	30507
#	41676
#	51398
#	65787
#	74584
#	86133
#	97691
#	109643
#	125098
#
# Disc length: 1799 seconds
#
# Revision: 1
# Processed by: cddbd v1.5.2PL0 Copyright (c) Steve Scherf et al.
# Submitted via: audiograbber 1.83.01
#
DISCID=a307050c
DTITLE=Fred Pike - Flattop Guitar
DYEAR=1978
DGENRE=Bluegrass
TTITLE0=Southern Rain
TTITLE1=Alabama Jubilee
TTITLE2=Black Mountain Rag
TTITLE3=Spansh Grass
TTITLE4=Jimmy G's Gas Pipe
TTITLE5=Sledd Ride
TTITLE6=Old Joe Clark
TTITLE7=Daybreak in Dixie
TTITLE8=Blackberry Rag
TTITLE9=My Bonnie Lies Over the Ocean
TTITLE10=Bury Me Beneath the Willow
TTITLE11=Huckleberry Hornpipe
EXTD=One of the best Flatpickers I ever heard. He taught me a lot so Thanks Fre
EXTD=d! RIP
EXTT0=
EXTT1=
EXTT2=
EXTT3=
EXTT4=
EXTT5=
EXTT6=
EXTT7=
EXTT8=
EXTT9=
EXTT10=
EXTT11=
PLAYORDER=
